Coordinates
version=1
nRows=8
nColumns=40
inDegrees=yes

Units are S.I. units (second, meters, Newtons, ...)
Angles are in degrees.

endheader
time	pelvis_tilt	pelvis_list	pelvis_rotation	pelvis_tx	pelvis_ty	pelvis_tz	hip_flexion_r	hip_adduction_r	hip_rotation_r	knee_angle_r	knee_angle_r_beta	ankle_angle_r	subtalar_angle_r	mtp_angle_r	hip_flexion_l	hip_adduction_l	hip_rotation_l	knee_angle_l	knee_angle_l_beta	ankle_angle_l	subtalar_angle_l	mtp_angle_l	lumbar_extension	lumbar_bending	lumbar_rotation	arm_flex_r	arm_add_r	arm_rot_r	elbow_flex_r	pro_sup_r	wrist_flex_r	wrist_dev_r	arm_flex_l	arm_add_l	arm_rot_l	elbow_flex_l	pro_sup_l	wrist_flex_l	wrist_dev_l
     12.42750000	     -7.79964100	     -5.74361788	      6.84395925	      1.05865461	      0.91731372	      0.44094043	      9.06906703	      2.33894124	     -8.74923161	     20.54649423	     20.54649423	     18.96125394	      2.05482342	     -0.76508500	     30.95242179	     -6.42342705	      4.28929057	     26.20283545	     26.20283545	      5.90552329	    -12.20060412	      4.52180049	    -12.07798941	      5.88511728	      4.16044295	     65.99063466	    -12.65591411	      6.95136505	    101.30623359	     44.37079403	      0.00000000	      0.00000000	     -9.02377278	    -14.98016781	     22.95735845	     35.37320777	     43.77857683	      0.00000000	      0.00000000
     12.44857143	     -7.97357557	     -5.84120272	      6.27126837	      1.05845915	      0.91762198	      0.43613264	      8.87758940	      2.06988927	     -8.54923615	     20.30899497	     20.30899497	     18.69212538	      2.74288269	     -0.94712775	     30.93586891	     -6.50914045	      3.58530900	     26.68756363	     26.68756363	      7.20409996	    -11.60832250	      5.92096473	    -12.03103597	      5.90971194	      3.90821736	     64.72533404	    -12.29045639	      6.82823493	     99.81994792	     44.46707101	      0.00000000	      0.00000000	     -8.51627113	    -15.41859934	     22.47774443	     35.81178303	     43.97448825	      0.00000000	      0.00000000
     12.46964286	     -8.14094191	     -5.95071613	      5.68454127	      1.05829896	      0.91806234	      0.43137958	      8.75208320	      1.82686760	     -8.24189056	     20.17543723	     20.17543723	     18.43174128	      3.22418115	     -0.86972268	     30.71701514	     -6.62369241	      2.84028490	     26.77544322	     26.77544322	      7.73455020	    -11.28704162	      5.68628767	    -11.96864383	      5.91253022	      4.00879533	     62.97421568	    -12.62192430	      6.80910939	     98.71298323	     44.50598828	      0.00000000	      0.00000000	     -7.54441673	    -15.78300453	     22.13211055	     35.95665815	     44.05618753	      0.00000000	      0.00000000
     12.49071429	     -8.30495331	     -6.05741213	      5.08539478	      1.05810486	      0.91865999	      0.42676515	      8.79613780	      1.56523289	     -7.96494516	     20.32442392	     20.32442392	     18.10686028	      3.56569809	     -0.81804329	     30.42855185	     -6.80316926	      1.91772454	     26.75166539	     26.75166539	      8.30401456	    -10.60020079	      5.32036788	    -11.91393404	      5.87340144	      4.01580820	     60.85464981	    -12.78751989	      6.74523018	     97.38945109	     44.55163082	      0.00000000	      0.00000000	     -6.46988001	    -16.05068531	     21.73130269	     35.90673077	     44.14669157	      0.00000000	      0.00000000
     12.51178571	     -8.48596441	     -6.13770269	      4.51705706	      1.05789300	      0.91941868	      0.42219729	      9.05005729	      1.26364604	     -7.67959521	     20.81249052	     20.81249052	     17.71158688	      3.65040173	     -0.82557050	     30.05005105	     -6.95557009	      0.90782908	     26.52444647	     26.52444647	      8.81349622	     -9.82797771	      4.94779260	    -11.79799181	      5.80844840	      3.88915166	     58.26529143	    -12.92123813	      6.80197306	     95.95952477	     44.59160752	      0.00000000	      0.00000000	     -5.30801518	    -16.29738607	     21.34694934	     35.81972320	     44.22781102	      0.00000000	      0.00000000
     12.53285714	     -8.64377306	     -6.20532555	      3.97966905	      1.05764849	      0.92034846	      0.41777313	      9.54840085	      0.94063345	     -7.47240240	     21.79683228	     21.79683228	     17.29070760	      3.38933646	     -0.96855596	     29.58468011	     -7.12976120	     -0.25368310	     26.17589820	     26.17589820	      9.32692158	     -8.83543627	      4.51160778	    -11.67178814	      5.74922586	      3.77458191	     55.35915474	    -13.02202900	      6.89958907	     94.27855280	     44.63589567	      0.00000000	      0.00000000	     -3.96516937	    -16.48441721	     20.94534239	     35.66092416	     44.31109186	      0.00000000	      0.00000000
     12.55392857	     -8.72674129	     -6.40237529	      3.46799869	      1.05723166	      0.92147450	      0.41374411	     10.27768117	      0.83668711	     -7.05741828	     23.29698024	     23.29698024	     16.51489180	      2.48296420	     -1.64558542	     29.10380770	     -7.56784198	     -1.69604963	     25.89131305	     25.89131305	      9.85315125	     -7.00319808	      3.62709082	    -11.65488371	      5.79248899	      3.58561668	     52.39059786	    -12.67954846	      6.54417049	     91.56418954	     44.74488438	      0.00000000	      0.00000000	     -1.95138914	    -16.09516191	     19.80944604	     33.89286880	     44.54949959	      0.00000000	      0.00000000
     12.57500000	     -8.85495971	     -6.48406587	      3.03084585	      1.05670656	      0.92258435	      0.40975730	     11.42106890	      0.58058071	     -6.79911984	     25.52935881	     25.52935881	     15.72915068	      1.23819403	     -2.52104973	     28.58845576	     -7.76619130	     -2.90471818	     25.44215650	     25.44215650	     10.28846417	     -5.67502589	      3.10457087	    -11.56674512	      5.72026540	      3.43205730	     48.96887149	    -12.74884957	      6.72178438	     89.03300132	     44.82147549	      0.00000000	      0.00000000	     -0.09106477	    -15.98819017	     18.97361601	     33.26950243	     44.72665886	      0.00000000	      0.00000000
